<?xml version="1.0" standalone="no"?>
<!DOCTYPE svg PUBLIC "-//W3C//DTD SVG 20010904//EN"
 "http://www.w3.org/TR/2001/REC-SVG-20010904/DTD/svg10.dtd">
<svg version="1.0" xmlns="http://www.w3.org/2000/svg"
 width="70.000000pt" height="70.000000pt" viewBox="0 0 70.000000 70.000000"
 preserveAspectRatio="xMidYMid meet">
<metadata>
Created by potrace 1.14, written by Peter Selinger 2001-2017
</metadata>
<g transform="translate(0.000000,70.000000) scale(0.100000,-0.100000)"
fill="#000000" stroke="none">
<path d="M270 690 c0 -5 -10 -8 -22 -7 -23 4 -32 -1 -77 -43 l-28 -25 -1 -256
-2 -256 28 -25 c26 -23 63 -37 102 -40 8 0 20 -4 25 -8 12 -9 125 -9 125 0 0
3 8 6 18 7 45 4 79 18 103 43 l26 26 0 249 c0 174 -3 255 -12 271 -7 13 -15
21 -18 17 -4 -3 -7 -2 -7 4 0 11 -47 36 -72 37 -9 1 -20 4 -24 9 -11 11 -164
9 -164 -3z"/>
<path d="M95 160 c-3 -5 -2 -10 4 -10 5 0 13 5 16 10 3 6 2 10 -4 10 -5 0 -13
-4 -16 -10z"/>
<path d="M595 160 c-3 -5 -1 -10 4 -10 6 0 11 5 11 10 0 6 -2 10 -4 10 -3 0
-8 -4 -11 -10z"/>
<path d="M90 59 c0 -5 5 -7 10 -4 6 3 10 8 10 11 0 2 -4 4 -10 4 -5 0 -10 -5
-10 -11z"/>
<path d="M140 47 c0 -10 5 -15 10 -12 6 3 10 2 10 -4 0 -5 -6 -12 -12 -14 -10
-4 -10 -6 -1 -6 21 -2 26 20 9 37 -15 15 -16 15 -16 -1z"/>
<path d="M210 33 c0 -15 18 -35 23 -27 3 5 -1 15 -9 22 -8 7 -14 9 -14 5z"/>
<path d="M480 20 c-8 -5 -10 -10 -5 -10 6 0 17 5 25 10 8 5 11 10 5 10 -5 0
-17 -5 -25 -10z"/>
<path d="M545 20 c3 -5 11 -10 16 -10 6 0 7 5 4 10 -3 6 -11 10 -16 10 -6 0
-7 -4 -4 -10z"/>
</g>
</svg>
